<svg width="1715" height="155" viewBox="0 0 1715 155" fill="none" xmlns="http://www.w3.org/2000/svg">
<path d="M95.3566 9.10259L95.2099 10.2314C94.5358 15.4222 94.1969 21.9733 94.1969 27.1826C94.1969 28.9547 94.2358 30.8056 94.2766 32.7472L94.2818 32.9959C94.3179 34.7169 94.3542 36.5061 94.3643 38.3585H114.645C120.212 38.3585 128.157 37.6859 132.185 37.0191L133.348 36.8264V38.0056V60.4972V61.5287L132.317 61.4967C130.512 61.4407 128.606 61.3666 126.697 61.2925C122.807 61.1413 118.907 60.9899 115.836 60.9899H94.8988C95.0433 67.9431 95.2007 75.1673 95.3597 82.464C95.7596 100.814 96.1694 119.623 96.4097 135.736M95.3566 9.10259L95.4098 135.751M95.3566 9.10259H94.2183H70.0468H68.88L69.0586 10.2556C69.7325 14.6073 70.2407 19.9814 70.7506 27.2405L95.3566 9.10259ZM96.4097 135.736L95.4098 135.751M96.4097 135.736C96.4097 135.736 96.4097 135.735 96.4097 135.735L95.4098 135.751M96.4097 135.736C96.4978 141.345 94.9062 145.923 91.4697 149.085C88.0496 152.232 82.9591 153.831 76.345 153.831C65.9386 153.831 56.383 153.492 46.6569 152.814L45.8027 152.754L45.7301 151.901L43.8576 129.917L43.7473 128.621L45.0279 128.847C52.6271 130.189 61.7607 130.861 67.4935 130.861C69.457 130.861 70.6003 130.358 71.2963 129.513C72.0307 128.622 72.4512 127.135 72.4512 124.759C72.4512 114.036 72.4512 98.3247 72.1629 81.9172M95.4098 135.751C95.58 146.574 89.2819 152.831 76.345 152.831C65.9615 152.831 56.4291 152.493 46.7265 151.816L44.9418 130.863C44.8544 130.847 44.7671 130.832 44.6801 130.817L44.854 129.832L45.8504 129.747L45.8725 130.006C53.3154 131.243 61.9603 131.861 67.4935 131.861C71.749 131.861 73.4512 129.663 73.4512 124.759C73.4512 113.773 73.4512 97.542 73.141 80.6886C72.8202 81.0965 72.4942 81.5061 72.1629 81.9172M72.1629 81.9172C56.7641 101.027 30.1326 123.407 4.12742 137.142L3.4346 137.508L2.91355 136.923L-12.7468 119.336L-13.6385 118.334L-12.4244 117.765C19.7362 102.691 47.0487 79.8178 60.9418 60.9899M72.1629 81.9172C72.1537 81.3954 72.1443 80.873 72.1345 80.3499C56.9544 99.546 29.9813 122.356 3.66039 136.258L-11.3063 119.45C-11.396 119.492 -11.4858 119.534 -11.5756 119.576L-12 118.671L-11.2532 118.006L-11.0571 118.226C21.1546 102.932 48.4447 79.9029 62.1811 60.9899H60.9418M132.348 60.4972C132.018 60.4869 131.685 60.4761 131.348 60.4647V60.4972H132.348ZM132.348 60.4972L132.379 59.4977C132.369 59.4973 132.358 59.497 132.348 59.4967V60.4972ZM132.348 38.0056L132.511 38.9922C132.457 39.0011 132.403 39.01 132.348 39.0189V38.0056ZM132.348 38.0056H131.348V38.1601C131.702 38.1088 132.036 38.0572 132.348 38.0056ZM94.2183 10.1026C94.1756 10.4308 94.1343 10.7644 94.0944 11.1026H94.2183V10.1026ZM94.2183 10.1026L93.2266 9.97379C93.221 10.0166 93.2155 10.0596 93.21 10.1026H94.2183ZM70.0468 10.1026L71.035 9.94956C71.0429 10.0004 71.0508 10.0514 71.0586 10.1026H70.0468ZM70.0468 10.1026V11.1026H70.1962C70.1473 10.7634 70.0975 10.4302 70.0468 10.1026ZM60.9418 60.9899C61.1887 60.6552 61.4314 60.3219 61.6698 59.9899M60.9418 60.9899L61.6698 59.9899M61.6698 59.9899H16.427C10.6378 59.9899 3.78504 60.2917 -1.97826 60.6103V60.6663H-2.97826L-3.03493 59.6679C-3.01605 59.6668 -2.99716 59.6658 -2.97826 59.6647V39.1839C-3.02377 39.1778 -3.06903 39.1716 -3.11402 39.1655L-2.97826 38.1747M61.6698 59.9899L-2.97826 38.1747M-2.97826 38.1747H-1.97826V38.3042C-2.32418 38.2618 -2.65802 38.2186 -2.97826 38.1747ZM72.2207 38.3585C72.2337 38.6899 72.2467 39.0232 72.2597 39.3585H71.2589C71.2459 39.0232 71.233 38.6899 71.22 38.3585H72.2207ZM94.3672 39.3585H93.3672H94.3672ZM163.751 66.265L162.669 66.1753V67.2616V93.8117V94.8955L163.749 94.8085C170.009 94.3042 181.384 93.9662 191.074 93.9662H282.483C287.532 93.9662 293.321 94.304 297.742 94.562C299.561 94.6682 301.149 94.7608 302.358 94.8109L303.399 94.854V93.8117V67.2616V66.1822L302.323 66.2645C301.797 66.3047 301.229 66.3495 300.623 66.3974C296.111 66.7537 289.495 67.2762 282.483 67.2762H191.074C182.246 67.2762 169.848 66.7697 163.751 66.265ZM368.988 152.851L368.815 154H369.977H396.532H397.635L397.527 152.902C396.847 145.973 396 134.177 396 129.325V82.8653C414.252 89.1299 438.937 98.6702 455.988 107.551L456.955 108.055L457.373 107.048L467.076 83.7108L467.438 82.8398L466.589 82.4275C451.027 74.8652 418.807 63.0116 396 56.364V32.0868C396 25.2201 396.843 17.836 397.525 11.908L397.653 10.7937H396.532H369.977H368.756L368.997 11.991C370.17 17.8187 370.679 26.2007 370.679 32.0868V129.325C370.679 136.045 370.001 146.142 368.988 152.851ZM622.051 10.0475L621.593 9.37415L620.841 9.6863L607.393 15.2669L606.232 15.7491L606.963 16.7723C611.151 22.6274 615.784 31.6367 619.297 38.4672C619.595 39.0466 619.884 39.6102 620.165 40.155L620.594 40.987L621.453 40.6138L635.07 34.695L636.051 34.2687L635.56 33.3187C632.319 27.048 626.34 16.3533 622.051 10.0475ZM642.134 2.43279L641.675 1.76608L640.927 2.07637L627.48 7.65698L626.302 8.14547L627.057 9.1726C631.604 15.3636 637.192 25.2834 640.583 32.1893L640.999 33.0373L641.87 32.6698L655.487 26.9201L656.484 26.4995L655.986 25.5392C652.905 19.5859 646.585 8.89586 642.134 2.43279ZM520.207 92.5912L520.202 92.6037C514.448 107.4 504.451 125.58 493.788 139.367L492.991 140.398L494.193 140.901L518.024 150.878L518.762 151.187L519.225 150.536C528.303 137.773 538.385 118.416 544.54 101.941C550.521 86.1511 556.661 62.7627 559.052 50.8862L559.054 50.8775L559.056 50.8689C559.732 47.1746 561.596 38.9301 563.112 34.0761L563.442 33.0195L562.357 32.7981L537.505 27.7248L536.415 27.5023L536.31 28.6099C534.278 49.9752 527.837 73.7251 520.207 92.5912ZM604.284 89.7572L604.286 89.7642C611.077 107.979 617.194 129.245 621.953 149.341L622.203 150.394L623.233 150.062L648.426 141.945L649.346 141.649L649.081 140.719C644.307 123.95 635.275 96.8624 629.305 81.6096L629.304 81.6072C622.826 65.1786 611.064 39.0985 604.062 26.0338L603.668 25.2992L602.875 25.5541L580.236 32.8258L579.075 33.1986L579.667 34.264C586.784 47.0579 597.828 72.035 604.284 89.7572ZM668.979 78.8067L667.774 79.1144L668.334 80.2252L679.057 101.533L679.431 102.276L680.23 102.044C700.661 96.103 721.725 87.2784 739.039 78.3752V130.847C739.039 138.282 738.527 148.864 737.861 152.835L737.666 154H738.847H765.742H767.063L766.705 152.729C766.143 150.734 765.762 147.158 765.528 143.071C765.295 139.016 765.21 134.555 765.21 130.847V63.0661C781.621 52.2645 797.834 39.1581 810.7 26.5438L811.441 25.8175L810.688 25.1039L792.304 7.68559L791.528 6.9503L790.846 7.77365C779.856 21.0429 760.538 37.8821 743.092 48.652C724.288 60.0961 699.359 71.0508 668.979 78.8067Z" stroke="url(#paint0_linear_4_42)" stroke-width="2"/>
<path d="M997.357 9.10259L997.21 10.2314C996.536 15.4222 996.197 21.9733 996.197 27.1826C996.197 28.9547 996.236 30.8056 996.277 32.7472L996.282 32.9959C996.318 34.7169 996.354 36.5061 996.364 38.3585H1016.64C1022.21 38.3585 1030.16 37.6859 1034.18 37.0191L1035.35 36.8264V38.0056V60.4972V61.5287L1034.32 61.4967C1032.51 61.4407 1030.61 61.3666 1028.7 61.2925C1024.81 61.1413 1020.91 60.9899 1017.84 60.9899H996.899C997.043 67.9431 997.201 75.1673 997.36 82.464C997.76 100.814 998.169 119.623 998.41 135.736M997.357 9.10259L997.41 135.751M997.357 9.10259H996.218H972.047H970.88L971.059 10.2556C971.732 14.6073 972.241 19.9814 972.751 27.2405L997.357 9.10259ZM998.41 135.736L997.41 135.751M998.41 135.736C998.41 135.736 998.41 135.735 998.41 135.735L997.41 135.751M998.41 135.736C998.498 141.345 996.906 145.923 993.47 149.085C990.05 152.232 984.959 153.831 978.345 153.831C967.939 153.831 958.383 153.492 948.657 152.814L947.803 152.754L947.73 151.901L945.858 129.917L945.747 128.621L947.028 128.847C954.627 130.189 963.761 130.861 969.493 130.861C971.457 130.861 972.6 130.358 973.296 129.513C974.031 128.622 974.451 127.135 974.451 124.759C974.451 114.036 974.451 98.3247 974.163 81.9172M997.41 135.751C997.58 146.574 991.282 152.831 978.345 152.831C967.961 152.831 958.429 152.493 948.726 151.816L946.942 130.863C946.854 130.847 946.767 130.832 946.68 130.817L946.854 129.832L947.85 129.747L947.872 130.006C955.315 131.243 963.96 131.861 969.493 131.861C973.749 131.861 975.451 129.663 975.451 124.759C975.451 113.773 975.451 97.542 975.141 80.6886C974.82 81.0965 974.494 81.5061 974.163 81.9172M974.163 81.9172C958.764 101.027 932.133 123.407 906.127 137.142L905.435 137.508L904.914 136.923L889.253 119.336L888.361 118.334L889.576 117.765C921.736 102.691 949.049 79.8178 962.942 60.9899M974.163 81.9172C974.154 81.3954 974.144 80.873 974.135 80.3499C958.954 99.546 931.981 122.356 905.66 136.258L890.694 119.45C890.604 119.492 890.514 119.534 890.424 119.576L890 118.671L890.747 118.006L890.943 118.226C923.155 102.932 950.445 79.9029 964.181 60.9899H962.942M1034.35 60.4972C1034.02 60.4869 1033.68 60.4761 1033.35 60.4647V60.4972H1034.35ZM1034.35 60.4972L1034.38 59.4977C1034.37 59.4973 1034.36 59.497 1034.35 59.4967V60.4972ZM1034.35 38.0056L1034.51 38.9922C1034.46 39.0011 1034.4 39.01 1034.35 39.0189V38.0056ZM1034.35 38.0056H1033.35V38.1601C1033.7 38.1088 1034.04 38.0572 1034.35 38.0056ZM996.218 10.1026C996.176 10.4308 996.134 10.7644 996.094 11.1026H996.218V10.1026ZM996.218 10.1026L995.227 9.97379C995.221 10.0166 995.215 10.0596 995.21 10.1026H996.218ZM972.047 10.1026L973.035 9.94956C973.043 10.0004 973.051 10.0514 973.059 10.1026H972.047ZM972.047 10.1026V11.1026H972.196C972.147 10.7634 972.098 10.4302 972.047 10.1026ZM962.942 60.9899C963.189 60.6552 963.431 60.3219 963.67 59.9899M962.942 60.9899L963.67 59.9899M963.67 59.9899H918.427C912.638 59.9899 905.785 60.2917 900.022 60.6103V60.6663H899.022L898.965 59.6679C898.984 59.6668 899.003 59.6658 899.022 59.6647V39.1839C898.976 39.1778 898.931 39.1716 898.886 39.1655L899.022 38.1747M963.67 59.9899L899.022 38.1747M899.022 38.1747H900.022V38.3042C899.676 38.2618 899.342 38.2186 899.022 38.1747ZM974.221 38.3585C974.234 38.6899 974.247 39.0232 974.26 39.3585H973.259C973.246 39.0232 973.233 38.6899 973.22 38.3585H974.221ZM996.367 39.3585H995.367H996.367ZM1065.75 66.265L1064.67 66.1753V67.2616V93.8117V94.8955L1065.75 94.8085C1072.01 94.3042 1083.38 93.9662 1093.07 93.9662H1184.48C1189.53 93.9662 1195.32 94.304 1199.74 94.562C1201.56 94.6682 1203.15 94.7608 1204.36 94.8109L1205.4 94.854V93.8117V67.2616V66.1822L1204.32 66.2645C1203.8 66.3047 1203.23 66.3495 1202.62 66.3974C1198.11 66.7537 1191.49 67.2762 1184.48 67.2762H1093.07C1084.25 67.2762 1071.85 66.7697 1065.75 66.265ZM1270.99 152.851L1270.81 154H1271.98H1298.53H1299.63L1299.53 152.902C1298.85 145.973 1298 134.177 1298 129.325V82.8653C1316.25 89.1299 1340.94 98.6702 1357.99 107.551L1358.95 108.055L1359.37 107.048L1369.08 83.7108L1369.44 82.8398L1368.59 82.4275C1353.03 74.8652 1320.81 63.0116 1298 56.364V32.0868C1298 25.2201 1298.84 17.836 1299.53 11.908L1299.65 10.7937H1298.53H1271.98H1270.76L1271 11.991C1272.17 17.8187 1272.68 26.2007 1272.68 32.0868V129.325C1272.68 136.045 1272 146.142 1270.99 152.851ZM1524.05 10.0475L1523.59 9.37415L1522.84 9.6863L1509.39 15.2669L1508.23 15.7491L1508.96 16.7723C1513.15 22.6274 1517.78 31.6367 1521.3 38.4672C1521.59 39.0466 1521.88 39.6102 1522.17 40.155L1522.59 40.987L1523.45 40.6138L1537.07 34.695L1538.05 34.2687L1537.56 33.3187C1534.32 27.048 1528.34 16.3533 1524.05 10.0475ZM1544.13 2.43279L1543.67 1.76608L1542.93 2.07637L1529.48 7.65698L1528.3 8.14547L1529.06 9.1726C1533.6 15.3636 1539.19 25.2834 1542.58 32.1893L1543 33.0373L1543.87 32.6698L1557.49 26.9201L1558.48 26.4995L1557.99 25.5392C1554.9 19.5859 1548.59 8.89586 1544.13 2.43279ZM1422.21 92.5912L1422.2 92.6037C1416.45 107.4 1406.45 125.58 1395.79 139.367L1394.99 140.398L1396.19 140.901L1420.02 150.878L1420.76 151.187L1421.23 150.536C1430.3 137.773 1440.39 118.416 1446.54 101.941C1452.52 86.1511 1458.66 62.7627 1461.05 50.8862L1461.05 50.8775L1461.06 50.8689C1461.73 47.1746 1463.6 38.9301 1465.11 34.0761L1465.44 33.0195L1464.36 32.7981L1439.51 27.7248L1438.41 27.5023L1438.31 28.6099C1436.28 49.9752 1429.84 73.7251 1422.21 92.5912ZM1506.28 89.7572L1506.29 89.7642C1513.08 107.979 1519.19 129.245 1523.95 149.341L1524.2 150.394L1525.23 150.062L1550.43 141.945L1551.35 141.649L1551.08 140.719C1546.31 123.95 1537.28 96.8624 1531.3 81.6096L1531.3 81.6072C1524.83 65.1786 1513.06 39.0985 1506.06 26.0338L1505.67 25.2992L1504.87 25.5541L1482.24 32.8258L1481.07 33.1986L1481.67 34.264C1488.78 47.0579 1499.83 72.035 1506.28 89.7572ZM1570.98 78.8067L1569.77 79.1144L1570.33 80.2252L1581.06 101.533L1581.43 102.276L1582.23 102.044C1602.66 96.103 1623.73 87.2784 1641.04 78.3752V130.847C1641.04 138.282 1640.53 148.864 1639.86 152.835L1639.67 154H1640.85H1667.74H1669.06L1668.7 152.729C1668.14 150.734 1667.76 147.158 1667.53 143.071C1667.3 139.016 1667.21 134.555 1667.21 130.847V63.0661C1683.62 52.2645 1699.83 39.1581 1712.7 26.5438L1713.44 25.8175L1712.69 25.1039L1694.3 7.68559L1693.53 6.9503L1692.85 7.77365C1681.86 21.0429 1662.54 37.8821 1645.09 48.652C1626.29 60.0961 1601.36 71.0508 1570.98 78.8067Z" stroke="url(#paint1_linear_4_42)" stroke-width="2"/>
<defs>
<linearGradient id="paint0_linear_4_42" x1="810" y1="153" x2="550.497" y2="-311.352" gradientUnits="userSpaceOnUse">
<stop stop-color="#9A6A44"/>
<stop offset="0.28125" stop-color="#FFF4BC"/>
<stop offset="0.53125" stop-color="#AB6516"/>
<stop offset="0.760417" stop-color="#9C3E09"/>
<stop offset="1" stop-color="#E7D4A6"/>
</linearGradient>
<linearGradient id="paint1_linear_4_42" x1="1712" y1="153" x2="1452.5" y2="-311.352" gradientUnits="userSpaceOnUse">
<stop stop-color="#9A6A44"/>
<stop offset="0.28125" stop-color="#FFF4BC"/>
<stop offset="0.53125" stop-color="#AB6516"/>
<stop offset="0.760417" stop-color="#9C3E09"/>
<stop offset="1" stop-color="#E7D4A6"/>
</linearGradient>
</defs>
</svg>
